<?xml version="1.0" encoding="iso-8859-1"?>
<!-- Generator: Adobe Illustrator 19.0.0, SVG Export Plug-In . SVG Version: 6.00 Build 0)  -->
<svg version="1.1" id="Capa_1" xmlns="http://www.w3.org/2000/svg" xmlns:xlink="http://www.w3.org/1999/xlink" x="0px" y="0px"
	 viewBox="0 0 512.001 512.001" style="enable-background:new 0 0 512.001 512.001;" xml:space="preserve">
<g>
	<path style="fill:#464D7F;" d="M256.568,411.654l-27.596-74.255c-3.141-8.452-0.567-17.966,6.406-23.681l58.306-47.787
		c9.018-7.389,22.319-6.071,29.709,2.946c7.391,9.018,6.071,22.318-2.945,29.709l-46.649,38.233l22.346,60.127
		c4.061,10.929-1.505,23.081-12.434,27.142C272.782,428.15,260.63,422.585,256.568,411.654z"/>
	<path style="fill:#464D7F;" d="M383.902,408.648c-10.541-4.981-15.048-17.565-10.066-28.106l34.131-71.013h-48.603
		c-11.63-0.816-20.398-10.904-19.582-22.535c0.815-11.63,10.902-20.408,22.535-19.582l78.048,2.984
		c14.789,1.036,23.749,17.933,17.401,31.363l-45.757,96.822C407.019,409.139,394.427,413.623,383.902,408.648z"/>
</g>
<path id="SVGCleanerId_0" style="fill:#A66749;" d="M507.02,117.623c-4.935-8.369-15.722-11.156-24.089-6.218l-53.229,31.746
	h-47.898h-90.709l-38.19-22.909l20.171-59.079c3.14-9.194-1.77-19.194-10.964-22.332c-9.193-3.136-19.193,1.77-22.332,10.964
	l-24.765,72.535c-2.679,7.849,0.486,16.503,7.599,20.77l66.022,39.605V309.53h93.17V178.04h52.592c3.143,0,6.228-0.842,8.935-2.438
	l57.471-33.889C509.171,136.777,511.954,125.992,507.02,117.623z"/>
<g>
	<path id="SVGCleanerId_0_1_" style="fill:#A66749;" d="M507.02,117.623c-4.935-8.369-15.722-11.156-24.089-6.218l-53.229,31.746
		h-47.898h-90.709l-38.19-22.909l20.171-59.079c3.14-9.194-1.77-19.194-10.964-22.332c-9.193-3.136-19.193,1.77-22.332,10.964
		l-24.765,72.535c-2.679,7.849,0.486,16.503,7.599,20.77l66.022,39.605V309.53h93.17V178.04h52.592c3.143,0,6.228-0.842,8.935-2.438
		l57.471-33.889C509.171,136.777,511.954,125.992,507.02,117.623z"/>
</g>
<path style="fill:#7EADFC;" d="M353.51,143.151c0.002,0.042,0.009,0.082,0.011,0.125c0.432,9.667-8.537,17.901-17.901,17.901
	c-10.036,0-17.467-8.203-17.901-17.901c-0.002-0.042,0.003-0.082,0.002-0.125h-26.625l-33.086-19.846l-17.758,30.376l48.383,29.023
	v126.825h93.17v-131.49h37.501v-34.888H353.51z"/>
<circle style="fill:#A66749;" cx="337.56" cy="92.145" r="36.46"/>
<g>
	<path style="fill:#5A2D19;" d="M439.445,26.825l59.553,89.997c3.351,5.065,1.962,11.887-3.102,15.239
		c-5.064,3.352-11.887,1.962-15.239-3.102c-0.206-0.31-0.399-0.642-0.569-0.964L429.99,32.412c-1.41-2.689-0.372-6.013,2.317-7.422
		C434.822,23.671,437.904,24.515,439.445,26.825z"/>
	<path style="fill:#5A2D19;" d="M356.085,10.301L261.843,62.88c-5.303,2.958-12.002,1.058-14.961-4.246
		c-2.958-5.303-1.058-12.002,4.246-14.961c0.325-0.181,0.669-0.349,1.004-0.495l99.096-42.728c2.788-1.202,6.024,0.083,7.227,2.872
		C359.579,5.929,358.505,8.94,356.085,10.301z"/>
</g>
<path style="fill:#738C96;" d="M290.264,338.096c6.066,0,10.982-4.916,10.982-10.982c0-6.066-4.917-10.982-10.982-10.982V259.95
	c6.066,0,10.982-4.917,10.982-10.982c0-6.066-4.917-10.982-10.982-10.982H173.051c-6.066,0-10.982,4.916-10.982,10.982
	c0,6.066,4.916,10.982,10.982,10.982v56.182c-6.066,0-10.982,4.916-10.982,10.982c0,6.066,4.916,10.982,10.982,10.982h47.624v81.907
	l-54.816,54.7c-4.289,4.289-4.288,11.243,0,15.532c4.289,4.289,11.243,4.288,15.532,0l50.276-50.281l50.267,50.28
	c2.145,2.145,4.955,3.217,7.767,3.217c2.809,0,5.62-1.072,7.765-3.216c4.289-4.288,4.29-11.242,0.001-15.532l-54.826-54.701v-81.907
	h47.624V338.096z"/>
<path style="fill:#C8E6EB;" d="M297.467,474.704l-54.826-54.701h-21.964l-54.816,54.7c-4.289,4.289-4.288,11.243,0,15.532
	c4.289,4.289,11.243,4.288,15.532,0l50.276-50.281l50.267,50.28c2.145,2.145,4.955,3.217,7.767,3.217
	c2.809,0,5.62-1.072,7.765-3.216C301.755,485.948,301.755,478.994,297.467,474.704z"/>
<path style="fill:#DD3E3E;" d="M290.264,316.132V259.95c6.066,0,10.982-4.917,10.982-10.982c0-6.066-4.917-10.982-10.982-10.982
	H173.051c-6.066,0-10.982,4.916-10.982,10.982s4.916,10.982,10.982,10.982v56.182c-6.066,0-10.982,4.916-10.982,10.982
	c0,6.066,4.916,10.982,10.982,10.982h117.212c6.066,0,10.982-4.916,10.982-10.982C301.246,321.048,296.328,316.132,290.264,316.132z
	"/>
<g>
	<path style="fill:#C8E6EB;" d="M290.264,338.096H173.051c-6.066,0-10.982-4.916-10.982-10.982c0-6.066,4.916-10.982,10.982-10.982
		h117.212c6.066,0,10.982,4.916,10.982,10.982C301.246,333.18,296.328,338.096,290.264,338.096z"/>
	<path style="fill:#C8E6EB;" d="M290.264,259.95H173.051c-6.066,0-10.982-4.917-10.982-10.982c0-6.066,4.916-10.982,10.982-10.982
		h117.212c6.066,0,10.982,4.916,10.982,10.982C301.246,255.033,296.328,259.95,290.264,259.95z"/>
</g>
<path style="fill:#738C96;" d="M407.25,460.596c-6.065,0-10.982-4.917-10.982-10.982V207.909c0-6.066,4.917-10.982,10.982-10.982
	s10.982,4.917,10.982,10.982v241.704C418.232,455.679,413.315,460.596,407.25,460.596z"/>
<path style="fill:#C8E6EB;" d="M487.867,474.702l-69.551-69.551h-22.134l-69.559,69.551c-4.289,4.288-4.289,11.242,0,15.532
	c2.145,2.145,4.955,3.216,7.766,3.216c2.811,0,5.621-1.072,7.766-3.216l54.112-54.107l21.964,0.001l54.104,54.105
	c4.29,4.29,11.243,4.289,15.532,0C492.157,485.946,492.157,478.991,487.867,474.702z"/>
<path style="fill:#FFD23C;" d="M504.471,210.214c1.459,0.08,2.638,1.215,2.775,2.669c0.137,1.454-0.812,2.789-2.23,3.14
	l-189.811,46.833c-1.418,0.35-2.878-0.391-3.434-1.741c-0.556-1.351-0.039-2.905,1.215-3.653l30.293-18.094
	c15.196-9.077,31.656-15.846,48.842-20.087l24.538-6.055c17.185-4.24,34.904-5.905,52.578-4.937L504.471,210.214z"/>
<g>
	<path style="fill:#EDB59E;" d="M275.747,183.39c-4.784-9.408-16.289-13.157-25.696-8.374l-49.54,25.187
		c-1.641-7.904-3.396-16.28-4.794-22.749c-5.39-24.939-22.972-41.055-44.791-41.055c-38.46,0-69.147,0-102.793,0
		c-24.811,0-45.097,20.186-45.223,44.938l-0.368,45.851c-0.05,6.263,2.971,12.152,8.087,15.764l38.082,26.891v49.689h101.22V174.619
		c0.362,0,0.702,0,0.995,0c4.934,0,7.193,9.791,7.434,10.909c3.617,16.736,9.695,46.577,9.756,46.876
		c2.527,12.419,16.191,18.914,27.387,13.222l71.871-36.541C276.78,204.301,280.53,192.798,275.747,183.39z M48.711,223.057
		l-7.87-5.558l0.288-35.912c0.019-3.842,3.161-6.969,7.004-6.969c0.179,0,0.375,0,0.579,0v48.438H48.711z"/>
	<path style="fill:#EDB59E;" d="M275.747,183.39c-4.784-9.408-16.289-13.157-25.696-8.374l-49.54,25.187
		c-1.641-7.904-3.396-16.28-4.794-22.749c-5.39-24.939-22.972-41.055-44.791-41.055c-38.46,0-69.147,0-102.793,0
		c-24.811,0-45.097,20.186-45.223,44.938l-0.368,45.851c-0.05,6.263,2.971,12.152,8.087,15.764l65.644,46.354
		c8.621,6.088,20.546,4.034,26.633-4.587c6.087-8.621,4.034-20.546-4.587-26.633l-57.478-40.587l0.288-35.912
		c0.019-3.842,3.161-6.969,7.004-6.969c12.683,0,90.298,0,102.793,0c4.934,0,7.193,9.791,7.434,10.909
		c3.617,16.736,9.695,46.577,9.756,46.876c2.527,12.419,16.191,18.914,27.387,13.222l71.871-36.541
		C276.78,204.301,280.53,192.798,275.747,183.39z"/>
</g>
<path style="fill:#783C28;" d="M117.333,280.816c-3.766,0-7.493-1.669-9.996-4.864c-4.321-5.516-3.352-13.49,2.164-17.812
	l154.509-121.05c5.514-4.32,13.49-3.353,17.812,2.164c4.322,5.516,3.353,13.49-2.164,17.812l-154.509,121.05
	C122.827,279.935,120.07,280.816,117.333,280.816z"/>
<path style="fill:#55879B;" d="M118.739,136.399c0.305,10.574-9.522,19.531-19.79,19.531c-11.006,0-19.167-8.923-19.77-19.531
	H48.711v183.133h101.22V136.399H118.739z"/>
<path style="fill:#283162;" d="M48.74,319.139c-0.002,0.132-0.02,0.26-0.02,0.392v169.536c0,12.664,10.267,22.932,22.932,22.932
	s22.932-10.267,22.932-22.932V319.532c0-0.132-0.018-0.26-0.02-0.392L48.74,319.139L48.74,319.139z"/>
<path style="fill:#23274A;" d="M178.725,371.702l-28.794-52.562H97.495l38.478,69.997l4.752,101.01
	c0.591,12.564,11.242,22.425,23.984,21.829c12.651-0.595,22.424-11.334,21.829-23.984l-5.002-106.32
	C181.371,378.177,180.41,374.767,178.725,371.702z"/>
<path style="fill:#B48255;" d="M139.447,317.524c0.978-12.848,10.64-23.373,23.362-25.411c5.45-0.873,10.561-2.993,14.97-6.448
	c17.209-13.483,17.242-42.18,0.071-64.095c-17.17-21.917-45.041-28.753-62.251-15.27c-4.41,3.455-7.691,7.909-9.844,12.992
	c-5.033,11.887-17.532,18.73-30.264,16.602c-13.712-2.292-27.137,0.348-37.636,8.573c-23.321,18.27-23.363,57.157-0.096,86.856
	c23.267,29.699,61.035,38.963,84.354,20.692C132.615,343.79,138.391,331.386,139.447,317.524z"/>
<circle style="fill:#EDB59E;" cx="99.527" cy="84.173" r="39.605"/>
<g>
	<circle style="fill:#501E0F;" cx="125.777" cy="261.514" r="16.564"/>
	<path style="fill:#501E0F;" d="M81.4,328.078l-30.881-39.417c-3.458-4.413-2.683-10.793,1.73-14.25
		c4.413-3.457,10.792-2.683,14.25,1.731L97.38,315.56c3.457,4.413,2.683,10.792-1.73,14.25
		C91.227,333.274,84.85,332.481,81.4,328.078z"/>
	<path style="fill:#501E0F;" d="M273.563,179.727c-3.013,0-5.995-1.336-7.997-3.891l-23.153-29.552
		c-3.457-4.413-2.683-10.793,1.731-14.25c4.412-3.457,10.791-2.683,14.25,1.73l23.153,29.552c3.457,4.413,2.683,10.792-1.73,14.25
		C277.957,179.021,275.752,179.727,273.563,179.727z"/>
	<path style="fill:#501E0F;" d="M254.385,194.749c-3.013,0-5.995-1.335-7.997-3.891l-23.152-29.551
		c-3.457-4.413-2.683-10.792,1.731-14.25c4.414-3.457,10.792-2.683,14.25,1.731l23.152,29.551c3.457,4.413,2.683,10.792-1.73,14.25
		C258.781,194.043,256.576,194.749,254.385,194.749z"/>
</g>
<path style="fill:#EDB59E;" d="M98.318,258.086L40.84,217.499l0.288-35.912c0.019-3.842,3.161-6.969,7.004-6.969h0.536v-38.22
	h-0.536c-24.811,0-45.097,20.186-45.223,44.938l-0.368,45.851c-0.05,6.263,2.971,12.152,8.087,15.764l65.644,46.354
	c8.621,6.088,20.546,4.034,26.633-4.587C108.993,276.097,106.94,264.173,98.318,258.086z"/>
<g>
</g>
<g>
</g>
<g>
</g>
<g>
</g>
<g>
</g>
<g>
</g>
<g>
</g>
<g>
</g>
<g>
</g>
<g>
</g>
<g>
</g>
<g>
</g>
<g>
</g>
<g>
</g>
<g>
</g>
</svg>
